%TF.GenerationSoftware,KiCad,Pcbnew,6.0.7-f9a2dced07~116~ubuntu20.04.1*%
%TF.CreationDate,2022-08-01T22:29:09-04:00*%
%TF.ProjectId,OverdrivePedal,4f766572-6472-4697-9665-506564616c2e,rev?*%
%TF.SameCoordinates,Original*%
%TF.FileFunction,Legend,Top*%
%TF.FilePolarity,Positive*%
%FSLAX46Y46*%
G04 Gerber Fmt 4.6, Leading zero omitted, Abs format (unit mm)*
G04 Created by KiCad (PCBNEW 6.0.7-f9a2dced07~116~ubuntu20.04.1) date 2022-08-01 22:29:09*
%MOMM*%
%LPD*%
G01*
G04 APERTURE LIST*
%ADD10C,0.150000*%
%ADD11C,0.120000*%
G04 APERTURE END LIST*
D10*
X139915000Y-118027380D02*
X140105476Y-118027380D01*
X140200714Y-118075000D01*
X140295952Y-118170238D01*
X140343571Y-118360714D01*
X140343571Y-118694047D01*
X140295952Y-118884523D01*
X140200714Y-118979761D01*
X140105476Y-119027380D01*
X139915000Y-119027380D01*
X139819761Y-118979761D01*
X139724523Y-118884523D01*
X139676904Y-118694047D01*
X139676904Y-118360714D01*
X139724523Y-118170238D01*
X139819761Y-118075000D01*
X139915000Y-118027380D01*
X140676904Y-118360714D02*
X140915000Y-119027380D01*
X141153095Y-118360714D01*
X141915000Y-118979761D02*
X141819761Y-119027380D01*
X141629285Y-119027380D01*
X141534047Y-118979761D01*
X141486428Y-118884523D01*
X141486428Y-118503571D01*
X141534047Y-118408333D01*
X141629285Y-118360714D01*
X141819761Y-118360714D01*
X141915000Y-118408333D01*
X141962619Y-118503571D01*
X141962619Y-118598809D01*
X141486428Y-118694047D01*
X142391190Y-119027380D02*
X142391190Y-118360714D01*
X142391190Y-118551190D02*
X142438809Y-118455952D01*
X142486428Y-118408333D01*
X142581666Y-118360714D01*
X142676904Y-118360714D01*
X143438809Y-119027380D02*
X143438809Y-118027380D01*
X143438809Y-118979761D02*
X143343571Y-119027380D01*
X143153095Y-119027380D01*
X143057857Y-118979761D01*
X143010238Y-118932142D01*
X142962619Y-118836904D01*
X142962619Y-118551190D01*
X143010238Y-118455952D01*
X143057857Y-118408333D01*
X143153095Y-118360714D01*
X143343571Y-118360714D01*
X143438809Y-118408333D01*
X143915000Y-119027380D02*
X143915000Y-118360714D01*
X143915000Y-118551190D02*
X143962619Y-118455952D01*
X144010238Y-118408333D01*
X144105476Y-118360714D01*
X144200714Y-118360714D01*
X144534047Y-119027380D02*
X144534047Y-118360714D01*
X144534047Y-118027380D02*
X144486428Y-118075000D01*
X144534047Y-118122619D01*
X144581666Y-118075000D01*
X144534047Y-118027380D01*
X144534047Y-118122619D01*
X144915000Y-118360714D02*
X145153095Y-119027380D01*
X145391190Y-118360714D01*
X146153095Y-118979761D02*
X146057857Y-119027380D01*
X145867380Y-119027380D01*
X145772142Y-118979761D01*
X145724523Y-118884523D01*
X145724523Y-118503571D01*
X145772142Y-118408333D01*
X145867380Y-118360714D01*
X146057857Y-118360714D01*
X146153095Y-118408333D01*
X146200714Y-118503571D01*
X146200714Y-118598809D01*
X145724523Y-118694047D01*
X147391190Y-119027380D02*
X147391190Y-118027380D01*
X147772142Y-118027380D01*
X147867380Y-118075000D01*
X147915000Y-118122619D01*
X147962619Y-118217857D01*
X147962619Y-118360714D01*
X147915000Y-118455952D01*
X147867380Y-118503571D01*
X147772142Y-118551190D01*
X147391190Y-118551190D01*
X148772142Y-118979761D02*
X148676904Y-119027380D01*
X148486428Y-119027380D01*
X148391190Y-118979761D01*
X148343571Y-118884523D01*
X148343571Y-118503571D01*
X148391190Y-118408333D01*
X148486428Y-118360714D01*
X148676904Y-118360714D01*
X148772142Y-118408333D01*
X148819761Y-118503571D01*
X148819761Y-118598809D01*
X148343571Y-118694047D01*
X149676904Y-119027380D02*
X149676904Y-118027380D01*
X149676904Y-118979761D02*
X149581666Y-119027380D01*
X149391190Y-119027380D01*
X149295952Y-118979761D01*
X149248333Y-118932142D01*
X149200714Y-118836904D01*
X149200714Y-118551190D01*
X149248333Y-118455952D01*
X149295952Y-118408333D01*
X149391190Y-118360714D01*
X149581666Y-118360714D01*
X149676904Y-118408333D01*
X150581666Y-119027380D02*
X150581666Y-118503571D01*
X150534047Y-118408333D01*
X150438809Y-118360714D01*
X150248333Y-118360714D01*
X150153095Y-118408333D01*
X150581666Y-118979761D02*
X150486428Y-119027380D01*
X150248333Y-119027380D01*
X150153095Y-118979761D01*
X150105476Y-118884523D01*
X150105476Y-118789285D01*
X150153095Y-118694047D01*
X150248333Y-118646428D01*
X150486428Y-118646428D01*
X150581666Y-118598809D01*
X151200714Y-119027380D02*
X151105476Y-118979761D01*
X151057857Y-118884523D01*
X151057857Y-118027380D01*
X144748333Y-120637380D02*
X144272142Y-120637380D01*
X144272142Y-119637380D01*
X145081666Y-120113571D02*
X145415000Y-120113571D01*
X145557857Y-120637380D02*
X145081666Y-120637380D01*
X145081666Y-119637380D01*
X145557857Y-119637380D01*
X145986428Y-120637380D02*
X145986428Y-119637380D01*
X146557857Y-120637380D01*
X146557857Y-119637380D01*
X124079047Y-116911428D02*
X124840952Y-116911428D01*
X126619047Y-116911428D02*
X127380952Y-116911428D01*
X127000000Y-117292380D02*
X127000000Y-116530476D01*
X129794047Y-56586428D02*
X130555952Y-56586428D01*
X130175000Y-56967380D02*
X130175000Y-56205476D01*
%TO.C,J12*%
X149075476Y-68457380D02*
X149075476Y-69171666D01*
X149027857Y-69314523D01*
X148932619Y-69409761D01*
X148789761Y-69457380D01*
X148694523Y-69457380D01*
X150075476Y-69457380D02*
X149504047Y-69457380D01*
X149789761Y-69457380D02*
X149789761Y-68457380D01*
X149694523Y-68600238D01*
X149599285Y-68695476D01*
X149504047Y-68743095D01*
X150456428Y-68552619D02*
X150504047Y-68505000D01*
X150599285Y-68457380D01*
X150837380Y-68457380D01*
X150932619Y-68505000D01*
X150980238Y-68552619D01*
X151027857Y-68647857D01*
X151027857Y-68743095D01*
X150980238Y-68885952D01*
X150408809Y-69457380D01*
X151027857Y-69457380D01*
%TO.C,J2*%
X103806666Y-69072380D02*
X103806666Y-69786666D01*
X103759047Y-69929523D01*
X103663809Y-70024761D01*
X103520952Y-70072380D01*
X103425714Y-70072380D01*
X104235238Y-69167619D02*
X104282857Y-69120000D01*
X104378095Y-69072380D01*
X104616190Y-69072380D01*
X104711428Y-69120000D01*
X104759047Y-69167619D01*
X104806666Y-69262857D01*
X104806666Y-69358095D01*
X104759047Y-69500952D01*
X104187619Y-70072380D01*
X104806666Y-70072380D01*
%TO.C,J1*%
X121142380Y-119713333D02*
X121856666Y-119713333D01*
X121999523Y-119760952D01*
X122094761Y-119856190D01*
X122142380Y-119999047D01*
X122142380Y-120094285D01*
X122142380Y-118713333D02*
X122142380Y-119284761D01*
X122142380Y-118999047D02*
X121142380Y-118999047D01*
X121285238Y-119094285D01*
X121380476Y-119189523D01*
X121428095Y-119284761D01*
%TO.C,RV3*%
X151247380Y-63460238D02*
X150771190Y-63793571D01*
X151247380Y-64031666D02*
X150247380Y-64031666D01*
X150247380Y-63650714D01*
X150295000Y-63555476D01*
X150342619Y-63507857D01*
X150437857Y-63460238D01*
X150580714Y-63460238D01*
X150675952Y-63507857D01*
X150723571Y-63555476D01*
X150771190Y-63650714D01*
X150771190Y-64031666D01*
X150247380Y-63174523D02*
X151247380Y-62841190D01*
X150247380Y-62507857D01*
X150247380Y-62269761D02*
X150247380Y-61650714D01*
X150628333Y-61984047D01*
X150628333Y-61841190D01*
X150675952Y-61745952D01*
X150723571Y-61698333D01*
X150818809Y-61650714D01*
X151056904Y-61650714D01*
X151152142Y-61698333D01*
X151199761Y-61745952D01*
X151247380Y-61841190D01*
X151247380Y-62126904D01*
X151199761Y-62222142D01*
X151152142Y-62269761D01*
%TO.C,RV2*%
X115052380Y-63460238D02*
X114576190Y-63793571D01*
X115052380Y-64031666D02*
X114052380Y-64031666D01*
X114052380Y-63650714D01*
X114100000Y-63555476D01*
X114147619Y-63507857D01*
X114242857Y-63460238D01*
X114385714Y-63460238D01*
X114480952Y-63507857D01*
X114528571Y-63555476D01*
X114576190Y-63650714D01*
X114576190Y-64031666D01*
X114052380Y-63174523D02*
X115052380Y-62841190D01*
X114052380Y-62507857D01*
X114147619Y-62222142D02*
X114100000Y-62174523D01*
X114052380Y-62079285D01*
X114052380Y-61841190D01*
X114100000Y-61745952D01*
X114147619Y-61698333D01*
X114242857Y-61650714D01*
X114338095Y-61650714D01*
X114480952Y-61698333D01*
X115052380Y-62269761D01*
X115052380Y-61650714D01*
%TO.C,RV1*%
X134102380Y-63460238D02*
X133626190Y-63793571D01*
X134102380Y-64031666D02*
X133102380Y-64031666D01*
X133102380Y-63650714D01*
X133150000Y-63555476D01*
X133197619Y-63507857D01*
X133292857Y-63460238D01*
X133435714Y-63460238D01*
X133530952Y-63507857D01*
X133578571Y-63555476D01*
X133626190Y-63650714D01*
X133626190Y-64031666D01*
X133102380Y-63174523D02*
X134102380Y-62841190D01*
X133102380Y-62507857D01*
X134102380Y-61650714D02*
X134102380Y-62222142D01*
X134102380Y-61936428D02*
X133102380Y-61936428D01*
X133245238Y-62031666D01*
X133340476Y-62126904D01*
X133388095Y-62222142D01*
%TO.C,R10*%
X141597142Y-54247380D02*
X141263809Y-53771190D01*
X141025714Y-54247380D02*
X141025714Y-53247380D01*
X141406666Y-53247380D01*
X141501904Y-53295000D01*
X141549523Y-53342619D01*
X141597142Y-53437857D01*
X141597142Y-53580714D01*
X141549523Y-53675952D01*
X141501904Y-53723571D01*
X141406666Y-53771190D01*
X141025714Y-53771190D01*
X142549523Y-54247380D02*
X141978095Y-54247380D01*
X142263809Y-54247380D02*
X142263809Y-53247380D01*
X142168571Y-53390238D01*
X142073333Y-53485476D01*
X141978095Y-53533095D01*
X143168571Y-53247380D02*
X143263809Y-53247380D01*
X143359047Y-53295000D01*
X143406666Y-53342619D01*
X143454285Y-53437857D01*
X143501904Y-53628333D01*
X143501904Y-53866428D01*
X143454285Y-54056904D01*
X143406666Y-54152142D01*
X143359047Y-54199761D01*
X143263809Y-54247380D01*
X143168571Y-54247380D01*
X143073333Y-54199761D01*
X143025714Y-54152142D01*
X142978095Y-54056904D01*
X142930476Y-53866428D01*
X142930476Y-53628333D01*
X142978095Y-53437857D01*
X143025714Y-53342619D01*
X143073333Y-53295000D01*
X143168571Y-53247380D01*
%TO.C,R9*%
X143343333Y-83457380D02*
X143010000Y-82981190D01*
X142771904Y-83457380D02*
X142771904Y-82457380D01*
X143152857Y-82457380D01*
X143248095Y-82505000D01*
X143295714Y-82552619D01*
X143343333Y-82647857D01*
X143343333Y-82790714D01*
X143295714Y-82885952D01*
X143248095Y-82933571D01*
X143152857Y-82981190D01*
X142771904Y-82981190D01*
X143819523Y-83457380D02*
X144010000Y-83457380D01*
X144105238Y-83409761D01*
X144152857Y-83362142D01*
X144248095Y-83219285D01*
X144295714Y-83028809D01*
X144295714Y-82647857D01*
X144248095Y-82552619D01*
X144200476Y-82505000D01*
X144105238Y-82457380D01*
X143914761Y-82457380D01*
X143819523Y-82505000D01*
X143771904Y-82552619D01*
X143724285Y-82647857D01*
X143724285Y-82885952D01*
X143771904Y-82981190D01*
X143819523Y-83028809D01*
X143914761Y-83076428D01*
X144105238Y-83076428D01*
X144200476Y-83028809D01*
X144248095Y-82981190D01*
X144295714Y-82885952D01*
%TO.C,R8*%
X135088333Y-108402380D02*
X134755000Y-107926190D01*
X134516904Y-108402380D02*
X134516904Y-107402380D01*
X134897857Y-107402380D01*
X134993095Y-107450000D01*
X135040714Y-107497619D01*
X135088333Y-107592857D01*
X135088333Y-107735714D01*
X135040714Y-107830952D01*
X134993095Y-107878571D01*
X134897857Y-107926190D01*
X134516904Y-107926190D01*
X135659761Y-107830952D02*
X135564523Y-107783333D01*
X135516904Y-107735714D01*
X135469285Y-107640476D01*
X135469285Y-107592857D01*
X135516904Y-107497619D01*
X135564523Y-107450000D01*
X135659761Y-107402380D01*
X135850238Y-107402380D01*
X135945476Y-107450000D01*
X135993095Y-107497619D01*
X136040714Y-107592857D01*
X136040714Y-107640476D01*
X135993095Y-107735714D01*
X135945476Y-107783333D01*
X135850238Y-107830952D01*
X135659761Y-107830952D01*
X135564523Y-107878571D01*
X135516904Y-107926190D01*
X135469285Y-108021428D01*
X135469285Y-108211904D01*
X135516904Y-108307142D01*
X135564523Y-108354761D01*
X135659761Y-108402380D01*
X135850238Y-108402380D01*
X135945476Y-108354761D01*
X135993095Y-108307142D01*
X136040714Y-108211904D01*
X136040714Y-108021428D01*
X135993095Y-107926190D01*
X135945476Y-107878571D01*
X135850238Y-107830952D01*
%TO.C,R7*%
X135088333Y-114117380D02*
X134755000Y-113641190D01*
X134516904Y-114117380D02*
X134516904Y-113117380D01*
X134897857Y-113117380D01*
X134993095Y-113165000D01*
X135040714Y-113212619D01*
X135088333Y-113307857D01*
X135088333Y-113450714D01*
X135040714Y-113545952D01*
X134993095Y-113593571D01*
X134897857Y-113641190D01*
X134516904Y-113641190D01*
X135421666Y-113117380D02*
X136088333Y-113117380D01*
X135659761Y-114117380D01*
%TO.C,R6*%
X126198333Y-100602380D02*
X125865000Y-100126190D01*
X125626904Y-100602380D02*
X125626904Y-99602380D01*
X126007857Y-99602380D01*
X126103095Y-99650000D01*
X126150714Y-99697619D01*
X126198333Y-99792857D01*
X126198333Y-99935714D01*
X126150714Y-100030952D01*
X126103095Y-100078571D01*
X126007857Y-100126190D01*
X125626904Y-100126190D01*
X127055476Y-99602380D02*
X126865000Y-99602380D01*
X126769761Y-99650000D01*
X126722142Y-99697619D01*
X126626904Y-99840476D01*
X126579285Y-100030952D01*
X126579285Y-100411904D01*
X126626904Y-100507142D01*
X126674523Y-100554761D01*
X126769761Y-100602380D01*
X126960238Y-100602380D01*
X127055476Y-100554761D01*
X127103095Y-100507142D01*
X127150714Y-100411904D01*
X127150714Y-100173809D01*
X127103095Y-100078571D01*
X127055476Y-100030952D01*
X126960238Y-99983333D01*
X126769761Y-99983333D01*
X126674523Y-100030952D01*
X126626904Y-100078571D01*
X126579285Y-100173809D01*
%TO.C,R5*%
X126198333Y-94887380D02*
X125865000Y-94411190D01*
X125626904Y-94887380D02*
X125626904Y-93887380D01*
X126007857Y-93887380D01*
X126103095Y-93935000D01*
X126150714Y-93982619D01*
X126198333Y-94077857D01*
X126198333Y-94220714D01*
X126150714Y-94315952D01*
X126103095Y-94363571D01*
X126007857Y-94411190D01*
X125626904Y-94411190D01*
X127103095Y-93887380D02*
X126626904Y-93887380D01*
X126579285Y-94363571D01*
X126626904Y-94315952D01*
X126722142Y-94268333D01*
X126960238Y-94268333D01*
X127055476Y-94315952D01*
X127103095Y-94363571D01*
X127150714Y-94458809D01*
X127150714Y-94696904D01*
X127103095Y-94792142D01*
X127055476Y-94839761D01*
X126960238Y-94887380D01*
X126722142Y-94887380D01*
X126626904Y-94839761D01*
X126579285Y-94792142D01*
%TO.C,R4*%
X112863333Y-105862380D02*
X112530000Y-105386190D01*
X112291904Y-105862380D02*
X112291904Y-104862380D01*
X112672857Y-104862380D01*
X112768095Y-104910000D01*
X112815714Y-104957619D01*
X112863333Y-105052857D01*
X112863333Y-105195714D01*
X112815714Y-105290952D01*
X112768095Y-105338571D01*
X112672857Y-105386190D01*
X112291904Y-105386190D01*
X113720476Y-105195714D02*
X113720476Y-105862380D01*
X113482380Y-104814761D02*
X113244285Y-105529047D01*
X113863333Y-105529047D01*
%TO.C,R3*%
X109688333Y-116657380D02*
X109355000Y-116181190D01*
X109116904Y-116657380D02*
X109116904Y-115657380D01*
X109497857Y-115657380D01*
X109593095Y-115705000D01*
X109640714Y-115752619D01*
X109688333Y-115847857D01*
X109688333Y-115990714D01*
X109640714Y-116085952D01*
X109593095Y-116133571D01*
X109497857Y-116181190D01*
X109116904Y-116181190D01*
X110021666Y-115657380D02*
X110640714Y-115657380D01*
X110307380Y-116038333D01*
X110450238Y-116038333D01*
X110545476Y-116085952D01*
X110593095Y-116133571D01*
X110640714Y-116228809D01*
X110640714Y-116466904D01*
X110593095Y-116562142D01*
X110545476Y-116609761D01*
X110450238Y-116657380D01*
X110164523Y-116657380D01*
X110069285Y-116609761D01*
X110021666Y-116562142D01*
%TO.C,R2*%
X109688333Y-100602380D02*
X109355000Y-100126190D01*
X109116904Y-100602380D02*
X109116904Y-99602380D01*
X109497857Y-99602380D01*
X109593095Y-99650000D01*
X109640714Y-99697619D01*
X109688333Y-99792857D01*
X109688333Y-99935714D01*
X109640714Y-100030952D01*
X109593095Y-100078571D01*
X109497857Y-100126190D01*
X109116904Y-100126190D01*
X110069285Y-99697619D02*
X110116904Y-99650000D01*
X110212142Y-99602380D01*
X110450238Y-99602380D01*
X110545476Y-99650000D01*
X110593095Y-99697619D01*
X110640714Y-99792857D01*
X110640714Y-99888095D01*
X110593095Y-100030952D01*
X110021666Y-100602380D01*
X110640714Y-100602380D01*
%TO.C,R1*%
X109688333Y-94887380D02*
X109355000Y-94411190D01*
X109116904Y-94887380D02*
X109116904Y-93887380D01*
X109497857Y-93887380D01*
X109593095Y-93935000D01*
X109640714Y-93982619D01*
X109688333Y-94077857D01*
X109688333Y-94220714D01*
X109640714Y-94315952D01*
X109593095Y-94363571D01*
X109497857Y-94411190D01*
X109116904Y-94411190D01*
X110640714Y-94887380D02*
X110069285Y-94887380D01*
X110355000Y-94887380D02*
X110355000Y-93887380D01*
X110259761Y-94030238D01*
X110164523Y-94125476D01*
X110069285Y-94173095D01*
%TO.C,Q3*%
X128157619Y-77565238D02*
X128110000Y-77660476D01*
X128014761Y-77755714D01*
X127871904Y-77898571D01*
X127824285Y-77993809D01*
X127824285Y-78089047D01*
X128062380Y-78041428D02*
X128014761Y-78136666D01*
X127919523Y-78231904D01*
X127729047Y-78279523D01*
X127395714Y-78279523D01*
X127205238Y-78231904D01*
X127110000Y-78136666D01*
X127062380Y-78041428D01*
X127062380Y-77850952D01*
X127110000Y-77755714D01*
X127205238Y-77660476D01*
X127395714Y-77612857D01*
X127729047Y-77612857D01*
X127919523Y-77660476D01*
X128014761Y-77755714D01*
X128062380Y-77850952D01*
X128062380Y-78041428D01*
X127062380Y-77279523D02*
X127062380Y-76660476D01*
X127443333Y-76993809D01*
X127443333Y-76850952D01*
X127490952Y-76755714D01*
X127538571Y-76708095D01*
X127633809Y-76660476D01*
X127871904Y-76660476D01*
X127967142Y-76708095D01*
X128014761Y-76755714D01*
X128062380Y-76850952D01*
X128062380Y-77136666D01*
X128014761Y-77231904D01*
X127967142Y-77279523D01*
%TO.C,Q2*%
X142812619Y-111220238D02*
X142765000Y-111315476D01*
X142669761Y-111410714D01*
X142526904Y-111553571D01*
X142479285Y-111648809D01*
X142479285Y-111744047D01*
X142717380Y-111696428D02*
X142669761Y-111791666D01*
X142574523Y-111886904D01*
X142384047Y-111934523D01*
X142050714Y-111934523D01*
X141860238Y-111886904D01*
X141765000Y-111791666D01*
X141717380Y-111696428D01*
X141717380Y-111505952D01*
X141765000Y-111410714D01*
X141860238Y-111315476D01*
X142050714Y-111267857D01*
X142384047Y-111267857D01*
X142574523Y-111315476D01*
X142669761Y-111410714D01*
X142717380Y-111505952D01*
X142717380Y-111696428D01*
X141812619Y-110886904D02*
X141765000Y-110839285D01*
X141717380Y-110744047D01*
X141717380Y-110505952D01*
X141765000Y-110410714D01*
X141812619Y-110363095D01*
X141907857Y-110315476D01*
X142003095Y-110315476D01*
X142145952Y-110363095D01*
X142717380Y-110934523D01*
X142717380Y-110315476D01*
%TO.C,Q1*%
X110394761Y-86247619D02*
X110299523Y-86200000D01*
X110204285Y-86104761D01*
X110061428Y-85961904D01*
X109966190Y-85914285D01*
X109870952Y-85914285D01*
X109918571Y-86152380D02*
X109823333Y-86104761D01*
X109728095Y-86009523D01*
X109680476Y-85819047D01*
X109680476Y-85485714D01*
X109728095Y-85295238D01*
X109823333Y-85200000D01*
X109918571Y-85152380D01*
X110109047Y-85152380D01*
X110204285Y-85200000D01*
X110299523Y-85295238D01*
X110347142Y-85485714D01*
X110347142Y-85819047D01*
X110299523Y-86009523D01*
X110204285Y-86104761D01*
X110109047Y-86152380D01*
X109918571Y-86152380D01*
X111299523Y-86152380D02*
X110728095Y-86152380D01*
X111013809Y-86152380D02*
X111013809Y-85152380D01*
X110918571Y-85295238D01*
X110823333Y-85390476D01*
X110728095Y-85438095D01*
%TO.C,J11*%
X145875476Y-79807380D02*
X145875476Y-80521666D01*
X145827857Y-80664523D01*
X145732619Y-80759761D01*
X145589761Y-80807380D01*
X145494523Y-80807380D01*
X146875476Y-80807380D02*
X146304047Y-80807380D01*
X146589761Y-80807380D02*
X146589761Y-79807380D01*
X146494523Y-79950238D01*
X146399285Y-80045476D01*
X146304047Y-80093095D01*
X147827857Y-80807380D02*
X147256428Y-80807380D01*
X147542142Y-80807380D02*
X147542142Y-79807380D01*
X147446904Y-79950238D01*
X147351666Y-80045476D01*
X147256428Y-80093095D01*
%TO.C,J10*%
X145875476Y-66762380D02*
X145875476Y-67476666D01*
X145827857Y-67619523D01*
X145732619Y-67714761D01*
X145589761Y-67762380D01*
X145494523Y-67762380D01*
X146875476Y-67762380D02*
X146304047Y-67762380D01*
X146589761Y-67762380D02*
X146589761Y-66762380D01*
X146494523Y-66905238D01*
X146399285Y-67000476D01*
X146304047Y-67048095D01*
X147494523Y-66762380D02*
X147589761Y-66762380D01*
X147685000Y-66810000D01*
X147732619Y-66857619D01*
X147780238Y-66952857D01*
X147827857Y-67143333D01*
X147827857Y-67381428D01*
X147780238Y-67571904D01*
X147732619Y-67667142D01*
X147685000Y-67714761D01*
X147589761Y-67762380D01*
X147494523Y-67762380D01*
X147399285Y-67714761D01*
X147351666Y-67667142D01*
X147304047Y-67571904D01*
X147256428Y-67381428D01*
X147256428Y-67143333D01*
X147304047Y-66952857D01*
X147351666Y-66857619D01*
X147399285Y-66810000D01*
X147494523Y-66762380D01*
%TO.C,J9*%
X139366666Y-69012380D02*
X139366666Y-69726666D01*
X139319047Y-69869523D01*
X139223809Y-69964761D01*
X139080952Y-70012380D01*
X138985714Y-70012380D01*
X139890476Y-70012380D02*
X140080952Y-70012380D01*
X140176190Y-69964761D01*
X140223809Y-69917142D01*
X140319047Y-69774285D01*
X140366666Y-69583809D01*
X140366666Y-69202857D01*
X140319047Y-69107619D01*
X140271428Y-69060000D01*
X140176190Y-69012380D01*
X139985714Y-69012380D01*
X139890476Y-69060000D01*
X139842857Y-69107619D01*
X139795238Y-69202857D01*
X139795238Y-69440952D01*
X139842857Y-69536190D01*
X139890476Y-69583809D01*
X139985714Y-69631428D01*
X140176190Y-69631428D01*
X140271428Y-69583809D01*
X140319047Y-69536190D01*
X140366666Y-69440952D01*
%TO.C,J8*%
X150161666Y-79807380D02*
X150161666Y-80521666D01*
X150114047Y-80664523D01*
X150018809Y-80759761D01*
X149875952Y-80807380D01*
X149780714Y-80807380D01*
X150780714Y-80235952D02*
X150685476Y-80188333D01*
X150637857Y-80140714D01*
X150590238Y-80045476D01*
X150590238Y-79997857D01*
X150637857Y-79902619D01*
X150685476Y-79855000D01*
X150780714Y-79807380D01*
X150971190Y-79807380D01*
X151066428Y-79855000D01*
X151114047Y-79902619D01*
X151161666Y-79997857D01*
X151161666Y-80045476D01*
X151114047Y-80140714D01*
X151066428Y-80188333D01*
X150971190Y-80235952D01*
X150780714Y-80235952D01*
X150685476Y-80283571D01*
X150637857Y-80331190D01*
X150590238Y-80426428D01*
X150590238Y-80616904D01*
X150637857Y-80712142D01*
X150685476Y-80759761D01*
X150780714Y-80807380D01*
X150971190Y-80807380D01*
X151066428Y-80759761D01*
X151114047Y-80712142D01*
X151161666Y-80616904D01*
X151161666Y-80426428D01*
X151114047Y-80331190D01*
X151066428Y-80283571D01*
X150971190Y-80235952D01*
%TO.C,J7*%
X117776666Y-58217380D02*
X117776666Y-58931666D01*
X117729047Y-59074523D01*
X117633809Y-59169761D01*
X117490952Y-59217380D01*
X117395714Y-59217380D01*
X118157619Y-58217380D02*
X118824285Y-58217380D01*
X118395714Y-59217380D01*
%TO.C,J6*%
X124126666Y-72187380D02*
X124126666Y-72901666D01*
X124079047Y-73044523D01*
X123983809Y-73139761D01*
X123840952Y-73187380D01*
X123745714Y-73187380D01*
X125031428Y-72187380D02*
X124840952Y-72187380D01*
X124745714Y-72235000D01*
X124698095Y-72282619D01*
X124602857Y-72425476D01*
X124555238Y-72615952D01*
X124555238Y-72996904D01*
X124602857Y-73092142D01*
X124650476Y-73139761D01*
X124745714Y-73187380D01*
X124936190Y-73187380D01*
X125031428Y-73139761D01*
X125079047Y-73092142D01*
X125126666Y-72996904D01*
X125126666Y-72758809D01*
X125079047Y-72663571D01*
X125031428Y-72615952D01*
X124936190Y-72568333D01*
X124745714Y-72568333D01*
X124650476Y-72615952D01*
X124602857Y-72663571D01*
X124555238Y-72758809D01*
%TO.C,J5*%
X129841666Y-72187380D02*
X129841666Y-72901666D01*
X129794047Y-73044523D01*
X129698809Y-73139761D01*
X129555952Y-73187380D01*
X129460714Y-73187380D01*
X130794047Y-72187380D02*
X130317857Y-72187380D01*
X130270238Y-72663571D01*
X130317857Y-72615952D01*
X130413095Y-72568333D01*
X130651190Y-72568333D01*
X130746428Y-72615952D01*
X130794047Y-72663571D01*
X130841666Y-72758809D01*
X130841666Y-72996904D01*
X130794047Y-73092142D01*
X130746428Y-73139761D01*
X130651190Y-73187380D01*
X130413095Y-73187380D01*
X130317857Y-73139761D01*
X130270238Y-73092142D01*
%TO.C,J4*%
X103171666Y-80442380D02*
X103171666Y-81156666D01*
X103124047Y-81299523D01*
X103028809Y-81394761D01*
X102885952Y-81442380D01*
X102790714Y-81442380D01*
X104076428Y-80775714D02*
X104076428Y-81442380D01*
X103838333Y-80394761D02*
X103600238Y-81109047D01*
X104219285Y-81109047D01*
%TO.C,J3*%
X103171666Y-85522380D02*
X103171666Y-86236666D01*
X103124047Y-86379523D01*
X103028809Y-86474761D01*
X102885952Y-86522380D01*
X102790714Y-86522380D01*
X103552619Y-85522380D02*
X104171666Y-85522380D01*
X103838333Y-85903333D01*
X103981190Y-85903333D01*
X104076428Y-85950952D01*
X104124047Y-85998571D01*
X104171666Y-86093809D01*
X104171666Y-86331904D01*
X104124047Y-86427142D01*
X104076428Y-86474761D01*
X103981190Y-86522380D01*
X103695476Y-86522380D01*
X103600238Y-86474761D01*
X103552619Y-86427142D01*
%TO.C,D3*%
X126261904Y-54007380D02*
X126261904Y-53007380D01*
X126500000Y-53007380D01*
X126642857Y-53055000D01*
X126738095Y-53150238D01*
X126785714Y-53245476D01*
X126833333Y-53435952D01*
X126833333Y-53578809D01*
X126785714Y-53769285D01*
X126738095Y-53864523D01*
X126642857Y-53959761D01*
X126500000Y-54007380D01*
X126261904Y-54007380D01*
X127166666Y-53007380D02*
X127785714Y-53007380D01*
X127452380Y-53388333D01*
X127595238Y-53388333D01*
X127690476Y-53435952D01*
X127738095Y-53483571D01*
X127785714Y-53578809D01*
X127785714Y-53816904D01*
X127738095Y-53912142D01*
X127690476Y-53959761D01*
X127595238Y-54007380D01*
X127309523Y-54007380D01*
X127214285Y-53959761D01*
X127166666Y-53912142D01*
%TO.C,D2*%
X137397380Y-101068095D02*
X136397380Y-101068095D01*
X136397380Y-100830000D01*
X136445000Y-100687142D01*
X136540238Y-100591904D01*
X136635476Y-100544285D01*
X136825952Y-100496666D01*
X136968809Y-100496666D01*
X137159285Y-100544285D01*
X137254523Y-100591904D01*
X137349761Y-100687142D01*
X137397380Y-100830000D01*
X137397380Y-101068095D01*
X136492619Y-100115714D02*
X136445000Y-100068095D01*
X136397380Y-99972857D01*
X136397380Y-99734761D01*
X136445000Y-99639523D01*
X136492619Y-99591904D01*
X136587857Y-99544285D01*
X136683095Y-99544285D01*
X136825952Y-99591904D01*
X137397380Y-100163333D01*
X137397380Y-99544285D01*
X137717380Y-104401904D02*
X136717380Y-104401904D01*
X137717380Y-103830476D02*
X137145952Y-104259047D01*
X136717380Y-103830476D02*
X137288809Y-104401904D01*
%TO.C,D1*%
X147352380Y-101068095D02*
X146352380Y-101068095D01*
X146352380Y-100830000D01*
X146400000Y-100687142D01*
X146495238Y-100591904D01*
X146590476Y-100544285D01*
X146780952Y-100496666D01*
X146923809Y-100496666D01*
X147114285Y-100544285D01*
X147209523Y-100591904D01*
X147304761Y-100687142D01*
X147352380Y-100830000D01*
X147352380Y-101068095D01*
X147352380Y-99544285D02*
X147352380Y-100115714D01*
X147352380Y-99830000D02*
X146352380Y-99830000D01*
X146495238Y-99925238D01*
X146590476Y-100020476D01*
X146638095Y-100115714D01*
X147032380Y-96781904D02*
X146032380Y-96781904D01*
X147032380Y-96210476D02*
X146460952Y-96639047D01*
X146032380Y-96210476D02*
X146603809Y-96781904D01*
%TO.C,C8*%
X105263333Y-58922142D02*
X105215714Y-58969761D01*
X105072857Y-59017380D01*
X104977619Y-59017380D01*
X104834761Y-58969761D01*
X104739523Y-58874523D01*
X104691904Y-58779285D01*
X104644285Y-58588809D01*
X104644285Y-58445952D01*
X104691904Y-58255476D01*
X104739523Y-58160238D01*
X104834761Y-58065000D01*
X104977619Y-58017380D01*
X105072857Y-58017380D01*
X105215714Y-58065000D01*
X105263333Y-58112619D01*
X105834761Y-58445952D02*
X105739523Y-58398333D01*
X105691904Y-58350714D01*
X105644285Y-58255476D01*
X105644285Y-58207857D01*
X105691904Y-58112619D01*
X105739523Y-58065000D01*
X105834761Y-58017380D01*
X106025238Y-58017380D01*
X106120476Y-58065000D01*
X106168095Y-58112619D01*
X106215714Y-58207857D01*
X106215714Y-58255476D01*
X106168095Y-58350714D01*
X106120476Y-58398333D01*
X106025238Y-58445952D01*
X105834761Y-58445952D01*
X105739523Y-58493571D01*
X105691904Y-58541190D01*
X105644285Y-58636428D01*
X105644285Y-58826904D01*
X105691904Y-58922142D01*
X105739523Y-58969761D01*
X105834761Y-59017380D01*
X106025238Y-59017380D01*
X106120476Y-58969761D01*
X106168095Y-58922142D01*
X106215714Y-58826904D01*
X106215714Y-58636428D01*
X106168095Y-58541190D01*
X106120476Y-58493571D01*
X106025238Y-58445952D01*
%TO.C,C7*%
X138007142Y-78906666D02*
X138054761Y-78954285D01*
X138102380Y-79097142D01*
X138102380Y-79192380D01*
X138054761Y-79335238D01*
X137959523Y-79430476D01*
X137864285Y-79478095D01*
X137673809Y-79525714D01*
X137530952Y-79525714D01*
X137340476Y-79478095D01*
X137245238Y-79430476D01*
X137150000Y-79335238D01*
X137102380Y-79192380D01*
X137102380Y-79097142D01*
X137150000Y-78954285D01*
X137197619Y-78906666D01*
X137102380Y-78573333D02*
X137102380Y-77906666D01*
X138102380Y-78335238D01*
%TO.C,C6*%
X119213333Y-78462142D02*
X119165714Y-78509761D01*
X119022857Y-78557380D01*
X118927619Y-78557380D01*
X118784761Y-78509761D01*
X118689523Y-78414523D01*
X118641904Y-78319285D01*
X118594285Y-78128809D01*
X118594285Y-77985952D01*
X118641904Y-77795476D01*
X118689523Y-77700238D01*
X118784761Y-77605000D01*
X118927619Y-77557380D01*
X119022857Y-77557380D01*
X119165714Y-77605000D01*
X119213333Y-77652619D01*
X120070476Y-77557380D02*
X119880000Y-77557380D01*
X119784761Y-77605000D01*
X119737142Y-77652619D01*
X119641904Y-77795476D01*
X119594285Y-77985952D01*
X119594285Y-78366904D01*
X119641904Y-78462142D01*
X119689523Y-78509761D01*
X119784761Y-78557380D01*
X119975238Y-78557380D01*
X120070476Y-78509761D01*
X120118095Y-78462142D01*
X120165714Y-78366904D01*
X120165714Y-78128809D01*
X120118095Y-78033571D01*
X120070476Y-77985952D01*
X119975238Y-77938333D01*
X119784761Y-77938333D01*
X119689523Y-77985952D01*
X119641904Y-78033571D01*
X119594285Y-78128809D01*
%TO.C,C5*%
X123402142Y-81446666D02*
X123449761Y-81494285D01*
X123497380Y-81637142D01*
X123497380Y-81732380D01*
X123449761Y-81875238D01*
X123354523Y-81970476D01*
X123259285Y-82018095D01*
X123068809Y-82065714D01*
X122925952Y-82065714D01*
X122735476Y-82018095D01*
X122640238Y-81970476D01*
X122545000Y-81875238D01*
X122497380Y-81732380D01*
X122497380Y-81637142D01*
X122545000Y-81494285D01*
X122592619Y-81446666D01*
X122497380Y-80541904D02*
X122497380Y-81018095D01*
X122973571Y-81065714D01*
X122925952Y-81018095D01*
X122878333Y-80922857D01*
X122878333Y-80684761D01*
X122925952Y-80589523D01*
X122973571Y-80541904D01*
X123068809Y-80494285D01*
X123306904Y-80494285D01*
X123402142Y-80541904D01*
X123449761Y-80589523D01*
X123497380Y-80684761D01*
X123497380Y-80922857D01*
X123449761Y-81018095D01*
X123402142Y-81065714D01*
%TO.C,C4*%
X112607142Y-81426666D02*
X112654761Y-81474285D01*
X112702380Y-81617142D01*
X112702380Y-81712380D01*
X112654761Y-81855238D01*
X112559523Y-81950476D01*
X112464285Y-81998095D01*
X112273809Y-82045714D01*
X112130952Y-82045714D01*
X111940476Y-81998095D01*
X111845238Y-81950476D01*
X111750000Y-81855238D01*
X111702380Y-81712380D01*
X111702380Y-81617142D01*
X111750000Y-81474285D01*
X111797619Y-81426666D01*
X112035714Y-80569523D02*
X112702380Y-80569523D01*
X111654761Y-80807619D02*
X112369047Y-81045714D01*
X112369047Y-80426666D01*
%TO.C,C3*%
X133217142Y-118911666D02*
X133264761Y-118959285D01*
X133312380Y-119102142D01*
X133312380Y-119197380D01*
X133264761Y-119340238D01*
X133169523Y-119435476D01*
X133074285Y-119483095D01*
X132883809Y-119530714D01*
X132740952Y-119530714D01*
X132550476Y-119483095D01*
X132455238Y-119435476D01*
X132360000Y-119340238D01*
X132312380Y-119197380D01*
X132312380Y-119102142D01*
X132360000Y-118959285D01*
X132407619Y-118911666D01*
X132312380Y-118578333D02*
X132312380Y-117959285D01*
X132693333Y-118292619D01*
X132693333Y-118149761D01*
X132740952Y-118054523D01*
X132788571Y-118006904D01*
X132883809Y-117959285D01*
X133121904Y-117959285D01*
X133217142Y-118006904D01*
X133264761Y-118054523D01*
X133312380Y-118149761D01*
X133312380Y-118435476D01*
X133264761Y-118530714D01*
X133217142Y-118578333D01*
%TO.C,C2*%
X108162142Y-81446666D02*
X108209761Y-81494285D01*
X108257380Y-81637142D01*
X108257380Y-81732380D01*
X108209761Y-81875238D01*
X108114523Y-81970476D01*
X108019285Y-82018095D01*
X107828809Y-82065714D01*
X107685952Y-82065714D01*
X107495476Y-82018095D01*
X107400238Y-81970476D01*
X107305000Y-81875238D01*
X107257380Y-81732380D01*
X107257380Y-81637142D01*
X107305000Y-81494285D01*
X107352619Y-81446666D01*
X107352619Y-81065714D02*
X107305000Y-81018095D01*
X107257380Y-80922857D01*
X107257380Y-80684761D01*
X107305000Y-80589523D01*
X107352619Y-80541904D01*
X107447857Y-80494285D01*
X107543095Y-80494285D01*
X107685952Y-80541904D01*
X108257380Y-81113333D01*
X108257380Y-80494285D01*
%TO.C,C1*%
X117687142Y-118911666D02*
X117734761Y-118959285D01*
X117782380Y-119102142D01*
X117782380Y-119197380D01*
X117734761Y-119340238D01*
X117639523Y-119435476D01*
X117544285Y-119483095D01*
X117353809Y-119530714D01*
X117210952Y-119530714D01*
X117020476Y-119483095D01*
X116925238Y-119435476D01*
X116830000Y-119340238D01*
X116782380Y-119197380D01*
X116782380Y-119102142D01*
X116830000Y-118959285D01*
X116877619Y-118911666D01*
X117782380Y-117959285D02*
X117782380Y-118530714D01*
X117782380Y-118245000D02*
X116782380Y-118245000D01*
X116925238Y-118340238D01*
X117020476Y-118435476D01*
X117068095Y-118530714D01*
D11*
%TO.C,J12*%
X148555000Y-75645000D02*
X151215000Y-75645000D01*
X151215000Y-70445000D02*
X151215000Y-71775000D01*
X149885000Y-70445000D02*
X151215000Y-70445000D01*
X148555000Y-73045000D02*
X151215000Y-73045000D01*
X151215000Y-73045000D02*
X151215000Y-75645000D01*
X148555000Y-73045000D02*
X148555000Y-75645000D01*
%TO.C,J2*%
X102810000Y-73660000D02*
X102810000Y-76260000D01*
X105470000Y-73660000D02*
X105470000Y-76260000D01*
X102810000Y-73660000D02*
X105470000Y-73660000D01*
X104140000Y-71060000D02*
X105470000Y-71060000D01*
X105470000Y-71060000D02*
X105470000Y-72390000D01*
X102810000Y-76260000D02*
X105470000Y-76260000D01*
%TO.C,J1*%
X125730000Y-120710000D02*
X128330000Y-120710000D01*
X125730000Y-118050000D02*
X128330000Y-118050000D01*
X125730000Y-120710000D02*
X125730000Y-118050000D01*
X123130000Y-119380000D02*
X123130000Y-118050000D01*
X123130000Y-118050000D02*
X124460000Y-118050000D01*
X128330000Y-120710000D02*
X128330000Y-118050000D01*
%TO.C,RV3*%
X139895000Y-60330000D02*
X139895000Y-65400000D01*
X149665000Y-60330000D02*
X139895000Y-60330000D01*
X149665000Y-65400000D02*
X139895000Y-65400000D01*
X149665000Y-60330000D02*
X149665000Y-65400000D01*
%TO.C,RV2*%
X103700000Y-60330000D02*
X103700000Y-65400000D01*
X113470000Y-60330000D02*
X103700000Y-60330000D01*
X113470000Y-65400000D02*
X103700000Y-65400000D01*
X113470000Y-60330000D02*
X113470000Y-65400000D01*
%TO.C,RV1*%
X122750000Y-60330000D02*
X122750000Y-65400000D01*
X132520000Y-60330000D02*
X122750000Y-60330000D01*
X132520000Y-65400000D02*
X122750000Y-65400000D01*
X132520000Y-60330000D02*
X132520000Y-65400000D01*
%TO.C,R10*%
X146860000Y-54795000D02*
X137620000Y-54795000D01*
X137620000Y-58235000D02*
X146860000Y-58235000D01*
X146860000Y-58235000D02*
X146860000Y-54795000D01*
X147550000Y-56515000D02*
X146860000Y-56515000D01*
X136930000Y-56515000D02*
X137620000Y-56515000D01*
X137620000Y-54795000D02*
X137620000Y-58235000D01*
%TO.C,R9*%
X138890000Y-84005000D02*
X138890000Y-87445000D01*
X138200000Y-85725000D02*
X138890000Y-85725000D01*
X148820000Y-85725000D02*
X148130000Y-85725000D01*
X148130000Y-87445000D02*
X148130000Y-84005000D01*
X138890000Y-87445000D02*
X148130000Y-87445000D01*
X148130000Y-84005000D02*
X138890000Y-84005000D01*
%TO.C,R8*%
X130985000Y-106255000D02*
X121745000Y-106255000D01*
X121745000Y-109695000D02*
X130985000Y-109695000D01*
X130985000Y-109695000D02*
X130985000Y-106255000D01*
X131675000Y-107975000D02*
X130985000Y-107975000D01*
X121055000Y-107975000D02*
X121745000Y-107975000D01*
X121745000Y-106255000D02*
X121745000Y-109695000D01*
%TO.C,R7*%
X121745000Y-111310000D02*
X121745000Y-114750000D01*
X121055000Y-113030000D02*
X121745000Y-113030000D01*
X131675000Y-113030000D02*
X130985000Y-113030000D01*
X130985000Y-114750000D02*
X130985000Y-111310000D01*
X121745000Y-114750000D02*
X130985000Y-114750000D01*
X130985000Y-111310000D02*
X121745000Y-111310000D01*
%TO.C,R6*%
X121745000Y-101150000D02*
X121745000Y-104590000D01*
X121055000Y-102870000D02*
X121745000Y-102870000D01*
X131675000Y-102870000D02*
X130985000Y-102870000D01*
X130985000Y-104590000D02*
X130985000Y-101150000D01*
X121745000Y-104590000D02*
X130985000Y-104590000D01*
X130985000Y-101150000D02*
X121745000Y-101150000D01*
%TO.C,R5*%
X130985000Y-95435000D02*
X121745000Y-95435000D01*
X121745000Y-98875000D02*
X130985000Y-98875000D01*
X130985000Y-98875000D02*
X130985000Y-95435000D01*
X131675000Y-97155000D02*
X130985000Y-97155000D01*
X121055000Y-97155000D02*
X121745000Y-97155000D01*
X121745000Y-95435000D02*
X121745000Y-98875000D01*
%TO.C,R4*%
X114475000Y-106230000D02*
X105235000Y-106230000D01*
X105235000Y-109670000D02*
X114475000Y-109670000D01*
X114475000Y-109670000D02*
X114475000Y-106230000D01*
X115165000Y-107950000D02*
X114475000Y-107950000D01*
X104545000Y-107950000D02*
X105235000Y-107950000D01*
X105235000Y-106230000D02*
X105235000Y-109670000D01*
%TO.C,R3*%
X105235000Y-111310000D02*
X105235000Y-114750000D01*
X104545000Y-113030000D02*
X105235000Y-113030000D01*
X115165000Y-113030000D02*
X114475000Y-113030000D01*
X114475000Y-114750000D02*
X114475000Y-111310000D01*
X105235000Y-114750000D02*
X114475000Y-114750000D01*
X114475000Y-111310000D02*
X105235000Y-111310000D01*
%TO.C,R2*%
X114475000Y-101150000D02*
X105235000Y-101150000D01*
X105235000Y-104590000D02*
X114475000Y-104590000D01*
X114475000Y-104590000D02*
X114475000Y-101150000D01*
X115165000Y-102870000D02*
X114475000Y-102870000D01*
X104545000Y-102870000D02*
X105235000Y-102870000D01*
X105235000Y-101150000D02*
X105235000Y-104590000D01*
%TO.C,R1*%
X105235000Y-95435000D02*
X105235000Y-98875000D01*
X104545000Y-97155000D02*
X105235000Y-97155000D01*
X115165000Y-97155000D02*
X114475000Y-97155000D01*
X114475000Y-98875000D02*
X114475000Y-95435000D01*
X105235000Y-98875000D02*
X114475000Y-98875000D01*
X114475000Y-95435000D02*
X105235000Y-95435000D01*
%TO.C,Q3*%
X128569999Y-77470000D02*
G75*
G03*
X133008478Y-79308478I2600001J0D01*
G01*
X133008478Y-75631522D02*
G75*
G03*
X128570000Y-77470000I-1838478J-1838478D01*
G01*
X133020000Y-79270000D02*
X133020000Y-75670000D01*
%TO.C,Q2*%
X141305001Y-111125000D02*
G75*
G03*
X136866522Y-109286522I-2600001J0D01*
G01*
X136866522Y-112963478D02*
G75*
G03*
X141305000Y-111125000I1838478J1838478D01*
G01*
X136855000Y-109325000D02*
X136855000Y-112925000D01*
%TO.C,Q1*%
X110490000Y-86659999D02*
G75*
G03*
X108651522Y-91098478I0J-2600001D01*
G01*
X112328478Y-91098478D02*
G75*
G03*
X110490000Y-86660000I-1838478J1838478D01*
G01*
X108690000Y-91110000D02*
X112290000Y-91110000D01*
%TO.C,J11*%
X147936000Y-78105000D02*
G75*
G03*
X147936000Y-78105000I-1251000J0D01*
G01*
%TO.C,J10*%
X151111000Y-67310000D02*
G75*
G03*
X151111000Y-67310000I-1251000J0D01*
G01*
%TO.C,J9*%
X140951000Y-67310000D02*
G75*
G03*
X140951000Y-67310000I-1251000J0D01*
G01*
%TO.C,J8*%
X151746000Y-78105000D02*
G75*
G03*
X151746000Y-78105000I-1251000J0D01*
G01*
%TO.C,J7*%
X119361000Y-56515000D02*
G75*
G03*
X119361000Y-56515000I-1251000J0D01*
G01*
%TO.C,J6*%
X125711000Y-70485000D02*
G75*
G03*
X125711000Y-70485000I-1251000J0D01*
G01*
%TO.C,J5*%
X131426000Y-70485000D02*
G75*
G03*
X131426000Y-70485000I-1251000J0D01*
G01*
%TO.C,J4*%
X104756000Y-78740000D02*
G75*
G03*
X104756000Y-78740000I-1251000J0D01*
G01*
%TO.C,J3*%
X104756000Y-83820000D02*
G75*
G03*
X104756000Y-83820000I-1251000J0D01*
G01*
%TO.C,D3*%
X125440000Y-55279000D02*
X125440000Y-55435000D01*
X125440000Y-57595000D02*
X125440000Y-57751000D01*
X128041130Y-55435163D02*
G75*
G03*
X125959039Y-55435000I-1041130J-1079837D01*
G01*
X125440000Y-57750516D02*
G75*
G03*
X128672335Y-57593608I1560000J1235516D01*
G01*
X125959039Y-57595000D02*
G75*
G03*
X128041130Y-57594837I1040961J1080000D01*
G01*
X128672335Y-55436392D02*
G75*
G03*
X125440000Y-55279484I-1672335J-1078608D01*
G01*
%TO.C,D2*%
X137945000Y-98210000D02*
X137945000Y-102450000D01*
X137945000Y-101730000D02*
X140185000Y-101730000D01*
X137945000Y-101850000D02*
X140185000Y-101850000D01*
X140185000Y-98210000D02*
X137945000Y-98210000D01*
X137945000Y-101610000D02*
X140185000Y-101610000D01*
X139065000Y-103100000D02*
X139065000Y-102450000D01*
X137945000Y-102450000D02*
X140185000Y-102450000D01*
X140185000Y-102450000D02*
X140185000Y-98210000D01*
X139065000Y-97560000D02*
X139065000Y-98210000D01*
%TO.C,D1*%
X145900000Y-102450000D02*
X145900000Y-98210000D01*
X145900000Y-98930000D02*
X143660000Y-98930000D01*
X145900000Y-98810000D02*
X143660000Y-98810000D01*
X143660000Y-102450000D02*
X145900000Y-102450000D01*
X145900000Y-99050000D02*
X143660000Y-99050000D01*
X144780000Y-97560000D02*
X144780000Y-98210000D01*
X145900000Y-98210000D02*
X143660000Y-98210000D01*
X143660000Y-98210000D02*
X143660000Y-102450000D01*
X144780000Y-103100000D02*
X144780000Y-102450000D01*
%TO.C,C8*%
X106059000Y-55595000D02*
X104801000Y-55595000D01*
X106059000Y-57435000D02*
X104801000Y-57435000D01*
%TO.C,C7*%
X140620000Y-79369000D02*
X140620000Y-78111000D01*
X138780000Y-79369000D02*
X138780000Y-78111000D01*
%TO.C,C6*%
X119727401Y-82120000D02*
X119727401Y-83336000D01*
X121008401Y-79929000D02*
X121008401Y-80440000D01*
X120848401Y-79764000D02*
X120848401Y-80440000D01*
X121168401Y-82120000D02*
X121168401Y-82422000D01*
X120968401Y-79884000D02*
X120968401Y-80440000D01*
X120888401Y-79802000D02*
X120888401Y-80440000D01*
X120848401Y-82120000D02*
X120848401Y-82796000D01*
X119687401Y-82120000D02*
X119687401Y-83342000D01*
X120328401Y-82120000D02*
X120328401Y-83150000D01*
X120007401Y-82120000D02*
X120007401Y-83274000D01*
X119847401Y-79246000D02*
X119847401Y-80440000D01*
X121448401Y-80743000D02*
X121448401Y-81817000D01*
X121488401Y-80910000D02*
X121488401Y-81650000D01*
X119487401Y-79201000D02*
X119487401Y-83359000D01*
X119607401Y-79209000D02*
X119607401Y-80440000D01*
X120168401Y-79340000D02*
X120168401Y-80440000D01*
X121288401Y-80340000D02*
X121288401Y-82220000D01*
X120928401Y-79842000D02*
X120928401Y-80440000D01*
X120648401Y-79600000D02*
X120648401Y-80440000D01*
X120087401Y-79312000D02*
X120087401Y-80440000D01*
X120168401Y-82120000D02*
X120168401Y-83220000D01*
X120128401Y-79326000D02*
X120128401Y-80440000D01*
X119527401Y-79203000D02*
X119527401Y-83357000D01*
X119447401Y-79200000D02*
X119447401Y-83360000D01*
X119647401Y-79213000D02*
X119647401Y-80440000D01*
X120368401Y-79429000D02*
X120368401Y-80440000D01*
X120888401Y-82120000D02*
X120888401Y-82758000D01*
X120328401Y-79410000D02*
X120328401Y-80440000D01*
X119887401Y-82120000D02*
X119887401Y-83305000D01*
X120488401Y-82120000D02*
X120488401Y-83065000D01*
X121088401Y-80026000D02*
X121088401Y-80440000D01*
X120568401Y-79545000D02*
X120568401Y-80440000D01*
X120608401Y-82120000D02*
X120608401Y-82988000D01*
X119767401Y-82120000D02*
X119767401Y-83330000D01*
X119967401Y-82120000D02*
X119967401Y-83285000D01*
X120448401Y-82120000D02*
X120448401Y-83088000D01*
X119927401Y-82120000D02*
X119927401Y-83296000D01*
X120047401Y-82120000D02*
X120047401Y-83262000D01*
X120928401Y-82120000D02*
X120928401Y-82718000D01*
X120128401Y-82120000D02*
X120128401Y-83234000D01*
X120248401Y-82120000D02*
X120248401Y-83187000D01*
X121128401Y-82120000D02*
X121128401Y-82480000D01*
X121048401Y-79976000D02*
X121048401Y-80440000D01*
X120808401Y-79728000D02*
X120808401Y-80440000D01*
X120768401Y-82120000D02*
X120768401Y-82867000D01*
X121088401Y-82120000D02*
X121088401Y-82534000D01*
X121248401Y-80267000D02*
X121248401Y-82293000D01*
X120728401Y-79661000D02*
X120728401Y-80440000D01*
X120528401Y-82120000D02*
X120528401Y-83040000D01*
X120528401Y-79520000D02*
X120528401Y-80440000D01*
X121128401Y-80080000D02*
X121128401Y-80440000D01*
X120408401Y-79450000D02*
X120408401Y-80440000D01*
X120288401Y-79391000D02*
X120288401Y-80440000D01*
X120568401Y-82120000D02*
X120568401Y-83015000D01*
X120208401Y-79356000D02*
X120208401Y-80440000D01*
X121048401Y-82120000D02*
X121048401Y-82584000D01*
X119847401Y-82120000D02*
X119847401Y-83314000D01*
X120648401Y-82120000D02*
X120648401Y-82960000D01*
X117137600Y-80085000D02*
X117537600Y-80085000D01*
X119727401Y-79224000D02*
X119727401Y-80440000D01*
X121368401Y-80512000D02*
X121368401Y-82048000D01*
X120047401Y-79298000D02*
X120047401Y-80440000D01*
X117337600Y-79885000D02*
X117337600Y-80285000D01*
X120368401Y-82120000D02*
X120368401Y-83131000D01*
X120448401Y-79472000D02*
X120448401Y-80440000D01*
X119807401Y-79238000D02*
X119807401Y-80440000D01*
X120968401Y-82120000D02*
X120968401Y-82676000D01*
X120488401Y-79495000D02*
X120488401Y-80440000D01*
X120768401Y-79693000D02*
X120768401Y-80440000D01*
X120208401Y-82120000D02*
X120208401Y-83204000D01*
X120728401Y-82120000D02*
X120728401Y-82899000D01*
X120007401Y-79286000D02*
X120007401Y-80440000D01*
X119807401Y-82120000D02*
X119807401Y-83322000D01*
X120248401Y-79373000D02*
X120248401Y-80440000D01*
X119567401Y-79206000D02*
X119567401Y-83354000D01*
X120087401Y-82120000D02*
X120087401Y-83248000D01*
X120408401Y-82120000D02*
X120408401Y-83110000D01*
X120688401Y-82120000D02*
X120688401Y-82930000D01*
X121208401Y-82120000D02*
X121208401Y-82360000D01*
X121208401Y-80200000D02*
X121208401Y-80440000D01*
X120288401Y-82120000D02*
X120288401Y-83169000D01*
X119407401Y-79200000D02*
X119407401Y-83360000D01*
X120608401Y-79572000D02*
X120608401Y-80440000D01*
X121408401Y-80616000D02*
X121408401Y-81944000D01*
X119647401Y-82120000D02*
X119647401Y-83347000D01*
X120808401Y-82120000D02*
X120808401Y-82832000D01*
X121328401Y-80421000D02*
X121328401Y-82139000D01*
X119607401Y-82120000D02*
X119607401Y-83351000D01*
X119927401Y-79264000D02*
X119927401Y-80440000D01*
X121008401Y-82120000D02*
X121008401Y-82631000D01*
X119767401Y-79230000D02*
X119767401Y-80440000D01*
X121168401Y-80138000D02*
X121168401Y-80440000D01*
X119887401Y-79255000D02*
X119887401Y-80440000D01*
X120688401Y-79630000D02*
X120688401Y-80440000D01*
X119967401Y-79275000D02*
X119967401Y-80440000D01*
X119687401Y-79218000D02*
X119687401Y-80440000D01*
X121527401Y-81280000D02*
G75*
G03*
X121527401Y-81280000I-2120000J0D01*
G01*
%TO.C,C5*%
X126015000Y-81909000D02*
X126015000Y-80651000D01*
X124175000Y-81909000D02*
X124175000Y-80651000D01*
%TO.C,C4*%
X115220000Y-81889000D02*
X115220000Y-80631000D01*
X113380000Y-81889000D02*
X113380000Y-80631000D01*
%TO.C,C3*%
X129890000Y-118116000D02*
X129890000Y-119374000D01*
X131730000Y-118116000D02*
X131730000Y-119374000D01*
%TO.C,C2*%
X108935000Y-81909000D02*
X108935000Y-80651000D01*
X110775000Y-81909000D02*
X110775000Y-80651000D01*
%TO.C,C1*%
X120300000Y-119374000D02*
X120300000Y-118116000D01*
X118460000Y-119374000D02*
X118460000Y-118116000D01*
%TD*%
M02*
