M48
; DRILL file {KiCad 6.0.7-f9a2dced07~116~ubuntu20.04.1} date Mon 01 Aug 2022 10:30:10 PM EDT
; FORMAT={-:-/ absolute / inch / decimal}
; #@! TF.CreationDate,2022-08-01T22:30:10-04:00
; #@! TF.GenerationSoftware,Kicad,Pcbnew,6.0.7-f9a2dced07~116~ubuntu20.04.1
; #@! TF.FileFunction,Plated,1,2,PTH
FMAT,2
INCH
; #@! TA.AperFunction,Plated,PTH,ViaDrill
T1C0.0157
; #@! TA.AperFunction,Plated,PTH,ComponentDrill
T2C0.0236
; #@! TA.AperFunction,Plated,PTH,ComponentDrill
T3C0.0295
; #@! TA.AperFunction,Plated,PTH,ComponentDrill
T4C0.0315
; #@! TA.AperFunction,Plated,PTH,ComponentDrill
T5C0.0354
; #@! TA.AperFunction,Plated,PTH,ComponentDrill
T6C0.0394
%
G90
G05
T1
X4.175Y-3.975
X4.175Y-4.35
X4.225Y-3.7
X4.225Y-4.05
X4.35Y-3.625
X4.475Y-3.675
X4.5Y-3.95
X4.675Y-2.65
X4.75Y-3.55
X4.8Y-3.95
X4.85Y-4.05
X4.875Y-3.425
X5.05Y-3.575
X5.05Y-4.425
X5.15Y-3.95
X5.325Y-4.05
X5.375Y-3.05
X5.4Y-2.65
X5.725Y-4.275
T2
X4.6617Y-3.2
X4.7404Y-3.2
T3
X4.3Y-3.5142
X4.35Y-3.5142
X4.4Y-3.5142
X5.1642Y-3.0
X5.1642Y-3.05
X5.1642Y-3.1
X5.4608Y-4.325
X5.4608Y-4.375
X5.4608Y-4.425
T4
X4.075Y-3.825
X4.075Y-4.05
X4.075Y-4.25
X4.075Y-4.45
X4.1016Y-2.225
X4.175Y-2.475
X4.2Y-2.225
X4.275Y-2.475
X4.325Y-3.1508
X4.325Y-3.2492
X4.375Y-2.475
X4.5Y-3.15
X4.5Y-3.2484
X4.575Y-3.825
X4.575Y-4.05
X4.575Y-4.25
X4.575Y-4.45
X4.7Y-4.6258
X4.7Y-4.7242
X4.725Y-3.825
X4.725Y-4.05
X4.725Y-4.251
X4.725Y-4.45
X4.925Y-2.475
X4.925Y-3.1508
X4.925Y-3.2492
X5.025Y-2.475
X5.125Y-2.475
X5.15Y-4.6258
X5.15Y-4.7242
X5.225Y-3.825
X5.225Y-4.05
X5.225Y-4.251
X5.225Y-4.45
X5.35Y-2.225
X5.4Y-3.375
X5.475Y-3.8
X5.475Y-4.1
X5.5Y-3.0508
X5.5Y-3.1492
X5.6Y-2.475
X5.7Y-2.475
X5.7Y-3.8
X5.7Y-4.1
X5.8Y-2.475
X5.85Y-2.225
X5.9Y-3.375
T5
X4.95Y-2.225
X5.05Y-2.225
T6
X4.075Y-3.1
X4.075Y-3.3
X4.1Y-2.85
X4.1Y-2.95
X4.65Y-2.225
X4.9Y-2.775
X4.9Y-4.7
X5.0Y-4.7
X5.125Y-2.775
X5.5Y-2.65
X5.775Y-3.075
X5.9Y-2.65
X5.901Y-2.8258
X5.901Y-2.9258
X5.925Y-3.075
T0
M30
